<svg width="28" height="28" viewBox="0 0 28 28" fill="none" xmlns="http://www.w3.org/2000/svg">
<circle cx="14" cy="14" r="13.5" fill="#111111" fill-opacity="0.34" stroke="#1E1E1E"/>
<path d="M20.2657 7.73351C19.796 7.26385 19.159 7 18.4948 7C17.8306 7 17.1936 7.26385 16.7239 7.73351L8.35815 16.0993C8.07382 16.3836 7.87393 16.7413 7.78069 17.1324L7.01425 20.3536C6.9935 20.4408 6.99544 20.5319 7.0199 20.6182C7.04436 20.7045 7.09051 20.7831 7.15396 20.8464C7.21741 20.9098 7.29604 20.9559 7.38235 20.9803C7.46866 21.0046 7.55978 21.0065 7.647 20.9856L10.8675 20.2185C11.2589 20.1254 11.6167 19.9255 11.9013 19.641L20.2657 11.2766C20.7353 10.807 20.9992 10.17 20.9992 9.50577C20.9992 8.84157 20.7353 8.20457 20.2657 7.73491V7.73351ZM17.4659 8.47545C17.601 8.34033 17.7614 8.23315 17.9379 8.16002C18.1145 8.08689 18.3037 8.04926 18.4948 8.04926C18.6859 8.04926 18.8751 8.08689 19.0516 8.16002C19.2282 8.23315 19.3886 8.34033 19.5237 8.47545C19.6588 8.61057 19.766 8.77098 19.8391 8.94752C19.9123 9.12407 19.9499 9.31329 19.9499 9.50437C19.9499 9.69546 19.9123 9.88468 19.8391 10.0612C19.766 10.2378 19.6588 10.3982 19.5237 10.5333L18.8994 11.1569L16.8415 9.0998L17.4659 8.47615V8.47545ZM16.0996 9.84315L18.1574 11.8996L11.1579 18.8991C11.0109 19.0461 10.8262 19.149 10.6239 19.1973L8.23286 19.767L8.80191 17.376C8.85021 17.173 8.9538 16.9882 9.10079 16.8412L16.0996 9.84175V9.84315Z" fill="#F1F1F1"/>
</svg>
